<svg id="Слой_1" xmlns="http://www.w3.org/2000/svg" xmlns:xlink="http://www.w3.org/1999/xlink" viewBox="0 0 136.5 45.5"><style>.st0,.st1{clip-path:url(#SVGID_2_);fill:#fff}.st1{fill:#66bc46}</style><defs><path id="SVGID_1_" d="M0 0h136.5v45.5H0z"/></defs><clipPath id="SVGID_2_"><use xlink:href="#SVGID_1_" overflow="visible"/></clipPath><path class="st0" d="M25.2 12.5c-.3.2-.6.4-.8.6-.2.2-.4.3-.6.4-.7.3-1.3.8-1.7 1.4-.4.6-.9 1.1-1.4 1.7l-3.9 4.6c-.4.5-.8.9-1.3 1.4-.4.5-.8.9-1.3 1.3s-.6.9-.4 1.5c.2.6.3 1.2.3 1.7s-.2 1-.7 1.6c-.2.3-.4.8-.4 1.3s-.1 1-.1 1.5v6.3l-.3 6.1c0 .8-.5 1.3-1.4 1.5-.6.2-1.1.2-1.6.1s-1-.2-1.6-.4c-.6-.2-.9-.6-.9-1.3v-2.4V39c0-.8 0-1.6.1-2.4.1-.8.2-1.6.4-2.4.1-.3.1-.7.1-1v-1-1.4-1.4c.2-1.3.1-2.4-.3-3.4s-.8-2-1.4-3c-.2-.2-.3-.5-.4-.7-.1-.2-.2-.5-.1-.8l-1.3-2.2-3-5.3L0 11.7c.3-.2.6-.4 1-.5.4-.1.8-.2 1.2-.2.4 0 .8 0 1.1.1.4.1.7.2 1 .3.8.5 1.4 1.1 1.9 1.8.4.8.8 1.5 1.3 2.2.1.2.2.4.1.7v.8c.1 0 .2.1.3.1h.3c.6.3 1 .8 1.2 1.3.2.5.3 1.1.5 1.7l.2.5c.1.2.1.4.2.5.1.2.1.3.2.5.2.1.4.1.6 0 .2-.1.4.1.6.4.2.3.4.5.7.5.3 0 .5-.1.8-.4.2-.2.4-.3.5-.5.2-.2.3-.3.4-.5.8-1.2 1.7-2.3 2.6-3.3.9-1 1.7-2.2 2.4-3.5.2-.3.3-.5.5-.8.2-.2.4-.5.6-.7.3-.3.6-.6.9-.8.3-.2.7-.2 1.2 0 .4.1.9.2 1.3.3.5.1 1 .2 1.6.3M6.8 17.7c0 .6 0 .9.1 1 .1.1.3.1.8 0-.2-.2-.2-.4-.3-.6 0-.2-.2-.3-.6-.4M9.6 23h.2l-.1-.1-.1.1zm.2-2l-.2.1.1.2v-.1c.1 0 .1 0 .1-.2z"/><path class="st0" d="M8.4 17.9h-.1v.1zM27.6 36.3c-.3.2-.5.4-.8.6s-.4.3-.6.4c-.2.1-.4.2-.6.2-.1 0-.2-.1-.4-.2l.5-2.2c.1-.5.3-.9.4-1.3.1-.3.3-.7.4-.9.1-.3.2-.5.3-.8 0-.1 0-.1.1-.2-.3-1.4-.5-3-1.2-4.4l-1.8-.3c-.7-.1-1.4-.2-2.1-.4-.1-.5 0-.9.2-1.3l.3-.6c-1.3-.2-2.7-.1-4 0-.3.8-.6 1.7-.9 2.5-.4 1.3-.7 2.7-1 4.1l-.3 2.9v5.2c0 .5.1.9.3 1.3.2.4.5.8.9 1 1.2.9 2.5 1.3 3.9 1.3.8 0 1.4-.3 1.8-.8.4-.5.7-1.1 1-1.7.2-.3.3-.7.4-1 .1-.3.2-.6.3-1h.1c.5.2.9.2 1.3.1.3-.1.7-.4 1.2-.8s.9-.8 1-1.2c.2-.4.3-.8.3-1.1-.3.2-.7.4-1 .6m-4.3.4c0 .2-.1.4-.3.5-.2.5-.4 1.1-.5 1.6-.2.7-.5 1.4-.8 2.2-.1.3-.3.5-.5.7-.1.1-.3.2-.4.3-.2.1-.3.1-.4 0-.2-.1-.3-.2-.4-.4-.1-.2-.2-.4-.2-.5-.1-.5-.2-.9-.2-1.4-.1-.5-.1-.9 0-1.3.1-1.8.2-3.6.5-5.3.3-1.7.7-3.4 1.2-5 0-.1.1-.2.1-.3.1-.1.1-.2.2-.3h.4c0 .6.1 1.2.3 1.6.2.5.5.9.8 1.4-.1.5-.1 1-.2 1.5.3 1.6.4 3.1.4 4.7"/><path class="st0" d="M39.2 24.1c1.1-.3 1.9-.1 2.6.8.3.3.4.7.4 1.1 0 .4-.1.8-.3 1.2-.3.7-.5 1.4-.8 2.2-.3.7-.5 1.5-.8 2.2-.1.2-.3.6-.5 1.1-.3.5-.4.8-.5 1.1v1h-.6c-.2 0-.3-.1-.5-.1-.8-.2-1.3-.6-1.5-.9-.2-.4-.2-1 .1-1.8.2-.7.5-1.5.8-2.2.3-.7.5-1.5.8-2.2l.4-1.3c-.3.1-.6.2-.8.4-.2.2-.3.4-.4.6-.9 1.3-1.6 2.7-2.3 4.1-.7 1.4-1.2 2.8-1.6 4.4-.2.9-.5 1.7-.8 2.5-.3.8-.6 1.6-.9 2.5-.2.3-.2.7-.2 1 0 .4.1.7.4 1-.5.3-1.1.5-1.6.6-.6 0-1.1-.1-1.5-.3-.5-.2-.8-.5-1.1-1-.3-.4-.5-.9-.5-1.6 0-.5 0-1 .1-1.4.1-.5.2-1 .2-1.4l.2-1.6c.1-.7.2-1.3.2-1.8.1-.5.1-1 .2-1.5s.1-1 .2-1.5.2-1.2.3-1.9c0-1 .2-1.9.4-2.9s.4-1.9.7-2.9c.2-.6.3-.9.6-1.1.2-.1.6-.2 1.2-.1.5.1.9.2 1.2.3.3.1.5.3.8.6-.5 1.6-.8 3.2-1.1 4.8-.3 1.6-.3 3.3 0 5l1.9-3.1c.5-.9 1-1.7 1.5-2.6.5-.9 1.1-1.6 1.9-2.2.2-.2.4-.3.7-.5 0-.4.2-.5.5-.6M56 36.7c-.3.4-.6.9-.8 1.4-.3.5-.5 1-.8 1.4-.2.4-.4.8-.6.9-.3.3-.6.7-.9 1-.3.3-.7.5-1.1.6-.6-.4-1-.9-1.2-1.5l-.6-1.8c-.1-.3-.1-.7-.2-1 0-.3-.1-.7-.3-1-.2-.3-.3-.6-.5-.8-.2-.2-.4-.5-.6-.8l1-1c1.3-1.4 2.4-3 3.2-4.7.8-1.7 1.5-3.4 2.2-5.1.1-.1.1-.2.1-.3v-.3-.6c-.6.3-1.3.6-1.9.9-.2.5-.4 1-.7 1.6-.5 1-1 2-1.6 2.9-.6 1-1.3 1.9-2 2.7-.7.9-1.5 1.5-2.3 2.1 0-.3.1-.7.2-1.1-.1-.1-.1-.3-.1-.4-.1-.1-.1-.3-.1-.4 0-.1 0-.3.1-.4 0-.1-.1-.2-.1-.3 0-.5 0-1 .2-1.5v-1.5c0-.6.1-1.2.2-1.8l.3-1.8.3-1.8c.1-1.2.3-2.4.5-3.6.2-1.2.5-2.4.7-3.6-.2-.3-.4-.7-.6-1.1l-.6-1.2c-.2-.4-.5-.7-.7-.9-.3-.2-.6-.4-.9-.3-.1.2-.1.6-.3 1.1l-.3 1.5c-.1.5-.2 1-.4 1.5-.1.5-.2.8-.2 1-.6 2.8-1.1 5.5-1.7 8.3-.5 2.7-.9 5.5-1.2 8.4-.4 2.6-.7 4.7-.9 6.2-.2 1.5-.3 2.6-.3 3.4 0 .7 0 1.2.1 1.4.1.2.2.3.4.4.6.2 1.2.4 1.8.5.5.1 1 .1 1.5 0 .2-2.5.5-4.9 1.1-7.3 0 0 0-.1.1-.1.1-.4.5-.5.8-.4.1-.1.1-.2.2-.3.2.4.3.8.5 1.3.2.4.3.8.5 1.3.7 1.8 1.9 2.9 3.7 3.5.7.2 1.4.2 2 .1.6-.1 1.2-.5 1.7-1 .2-.3.4-.6.6-1.1.2-.5.4-1 .6-1.6.2-.6.4-1.2.5-1.8.2-.6.4-1.3.5-1.9-.5 0-.8.3-1.1.7M81 12.7c.9 0 1.6.4 2.2 1.3-.3.2-.7.3-1 .3h-1c-1.3-.1-2.6-.1-3.8 0-1.3.1-2.6.4-3.8 1V23l-.2 1.6v2c.5-.1.9-.1 1.4-.2.4-.1.9-.1 1.3-.1h1.2c.4 0 .8.3 1.2.7l-.6.3c-.2.1-.3.2-.5.2-.5.2-1.1.4-1.6.5-.5.2-1.1.4-1.6.6-.4.2-.6.4-.8.9-.1.2-.2.5-.2.8 0 .3-.1.6-.1.8-.1 1.1-.3 2.2-.4 3.3-.1 1.1-.3 2.2-.3 3.3-.1.6-.1 1.2-.1 1.8 0 .6 0 1.2-.1 1.8 0 .5-.1 1-.1 1.5s-.1.9-.2 1.4c-.8.4-1.5.6-2.2.7-.7.1-1.4-.1-2.2-.8.1-.9.2-1.9.2-3 0-1 .2-2.1.5-3.1-.2-.7-.3-1.3-.2-2 .1-.7.3-1.3.3-2 .2-1 .3-2 .3-2.9.1-1 .1-2 0-2.9-.1-1.3 0-2.6 0-3.9.1-1.3.1-2.6.1-4v-5.4c-.4-.1-.8-.2-1.3-.3l-1.2-.3c-.4-.1-.8-.4-1.1-.8-.3-.4-.5-.8-.5-1.3 0-.2.1-.4.3-.5.2-.1.4-.1.6-.1l3.4.8c.8.2 1.7.3 2.5.4h2.5c1.2-.1 2.3-.1 3.5-.1H81zM68.2 38s.1 0 0 0h.2l-.1-.1s-.1 0-.1.1M90.1 24.1c1.1-.3 1.9-.1 2.6.8.3.3.4.7.4 1.1 0 .4-.1.8-.3 1.2-.3.7-.5 1.4-.8 2.2-.3.7-.5 1.5-.8 2.2-.1.2-.3.6-.5 1.1-.3.5-.4.8-.5 1.1v1h-.5c-.2 0-.4-.1-.5-.1-.8-.2-1.3-.6-1.5-.9-.2-.4-.2-1 .1-1.8.2-.7.5-1.5.8-2.2.3-.7.5-1.5.8-2.2l.4-1.3c-.3.1-.6.2-.8.4-.2.2-.3.4-.4.6-.9 1.3-1.6 2.7-2.3 4.1-.7 1.4-1.2 2.8-1.6 4.4-.2.9-.5 1.7-.8 2.5-.3.8-.6 1.6-.9 2.5-.2.3-.2.7-.2 1 0 .4.1.7.4 1-.5.3-1.1.5-1.6.6-.5 0-1.1-.1-1.5-.3-.5-.2-.8-.5-1.1-1-.3-.4-.5-.9-.5-1.6 0-.5 0-1 .1-1.4.1-.5.2-1 .2-1.4l.2-1.6c.1-.7.2-1.3.2-1.8.1-.5.1-1 .2-1.5s.1-1 .2-1.5.2-1.2.3-1.9c0-1 .2-1.9.4-2.9s.5-1.9.7-2.9c.2-.6.3-.9.5-1.1.2-.1.6-.2 1.2-.1.5.1.9.2 1.2.3.3.1.5.3.8.6-.5 1.6-.8 3.2-1.1 4.8-.3 1.6-.3 3.3 0 5l1.9-3.1c.5-.9 1-1.7 1.5-2.6.5-.9 1.1-1.6 1.9-2.2.2-.2.4-.3.7-.5.1-.4.3-.5.5-.6M103.7 25.3c.7.2 1 .6.8 1.1-.1.2-.1.3-.2.4 0 .1-.1.3-.2.4-.7 1.2-1.5 2.3-2.3 3.3-.9 1.1-1.9 2.1-3 3.1-.4.4-.8.7-1.2 1.1-.4.4-.7.8-1 1.2-.2.3-.3.6-.3 1s-.1.7-.1 1c0 .5.2 1.1.6 1.7.4.6.9 1.1 1.4 1.4.2-.2.6-.4 1-.7.4-.3.7-.5 1-.8 1-.9 2-1.7 2.9-2.4 1-.7 1.7-1.3 2.2-1.8-.1.3-.1.7-.2 1-.1.3-.1.6-.2.9-.1.3-.2.6-.4.9-.5.8-1.1 1.5-1.8 2-.7.6-1.5 1.2-2.4 1.8-.5.4-1 .6-1.6.6-.5 0-1.2-.1-1.9-.3-1-.3-2-.8-2.8-1.5-.9-.7-1.5-1.6-1.8-2.5-.1-.1-.1-.3-.1-.4 0-.1-.1-.3-.1-.5 0-.3-.1-.6-.1-.9v-1c0-.3.1-.7.1-1.1.1-.4.2-.9.4-1.5.2-.9.6-1.9 1-2.8l1.2-2.7c.2-.3.3-.7.5-1 .2-.3.4-.7.6-1 .1-.2.3-.4.4-.5.1-.2.3-.3.5-.5.6-.6 1.4-.8 2.4-.6.2.1.5.1.8.1.3 0 .6 0 .8.1.4.1.7.2.9.3.7.6 1.4.9 2.2 1.1m-6.2 6.1c2.2-2.2 3.5-4 4.1-5.4-.6-.2-1-.3-1.2-.3-.2 0-.4.2-.7.5-.7.7-1.2 1.4-1.6 2.2-.4.8-.7 1.6-.9 2.5 0 .1 0 .1.1.2.1.2.2.2.2.3"/><path class="st0" d="M117.2 37.9c-.6.5-1.2.8-1.9.9v-.1c-.2 0-.4-.1-.5-.4-.6-2.3-1.5-4.5-2.9-6.4-.8-1.1-1.7-2.2-2.7-3.2-.4-.4-.6-.6-.7-1.1v-.2c-.4 0-.8.1-1.2.4v.1c-.6 1.6-1.1 3-1.6 4.2-.4 1.2-.8 2.2-1.1 3.1-.2.7-.4 1.3-.4 1.8-.1.5-.2.8-.3 1.1.9-.9 1.5-1.8 2-2.7.5-.9 1-1.7 1.4-2.5.4-.7.7-1.3 1-1.9.2-.6.4-1.1.6-1.5.1.1.2.3.3.4.1.1.2.3.3.4.4.8.8 1.6 1 2.5.2.9.4 1.7.4 2.6 0 .5.1 1 .1 1.6 0 .5 0 1-.1 1.6-.4.1-.8.1-1.1 0-.3 0-.7-.1-1-.1h-.9c-.3 0-.6.1-.9.2-.7.3-1.2.8-1.5 1.4-.3.7-.4 1.4-.4 2.2.1 1.3.5 2.2 1.3 2.7s2.1.5 3.8.2c1.4-.2 2.5-.7 3.1-1.4.7-.7 1.3-1.7 1.7-2.8.4-.1.9-.3 1.4-.6.5-.3 1-.6 1.4-1.1a5 5 0 0 0 1.1-1.6c.3-.6.4-1.3.4-2.1-.8 1.1-1.5 1.8-2.1 2.3m-6.6 4.3c-.2.5-.5.9-.8 1.2-.3.3-.7.5-1 .7-.4.1-.8.2-1.1.1-.3 0-.5-.1-.7-.3-.2-.2-.4-.5-.5-.8-.1-.3-.1-.7-.1-1.1 0-.4.2-.8.4-1.2.3-.5.7-.8 1.2-.7.3.1.8.1 1.4.2.6.1 1.1.1 1.6.2 0 .6-.2 1.2-.4 1.7"/><path class="st0" d="M131.9 37.2v.4c0 .1.1.3.1.6.6-.5 1.2-.9 1.7-1.4.5-.4 1-.8 1.5-1.1-.4 1.1-.8 2-1.1 2.6-.3.6-.7 1.1-1.1 1.6-.5.6-1.2.9-1.9 1-.8.1-1.5 0-2.2-.3-1.1-.5-1.7-1.3-1.9-2.5-.2-.9-.3-1.8-.3-2.7-.1-.9-.2-1.8-.3-2.8-.5.5-.8 1-1 1.6-.2.6-.4 1.2-.5 1.8-.3.9-.6 1.9-.8 2.8-.3.9-.5 1.9-.8 2.8-.1.2-.1.5-.3.7-.1.2-.2.4-.3.7-.2.4-.4.7-.6 1-.2.2-.5.4-.7.4-.3.1-.5.1-.9.1-.3 0-.7-.1-1.1-.2-.4-.1-.7-.3-.9-.6-.2-.3-.3-.7-.3-1.1 0-1-.1-1.9-.1-2.9v-2.9-.8-1c.1-.5.1-1.1.2-1.6 0-.5.1-1 .2-1.6.1-.5.1-1.2.2-1.8.1-.7.2-1.4.4-2.3.2-1.5.3-3 .3-4.5.1-1.5.2-3 .4-4.5.2-1.3.4-2.5.6-3.7.2-1.2.5-2.5.7-3.7.2-.8.3-1.7.5-2.5s.4-1.6.6-2.5c.1-.3.1-.5.2-.8l.3-.9h1.1c.4 0 .7 0 1.1.1.5.1.8.2 1 .4.2.2.3.6.3 1.1v.9c0 .3-.1.6-.1.9-.4 2.4-.8 4.7-1.2 7-.2 1-.4 2.1-.6 3.1-.2 1-.5 2-.7 3.1-.1.3-.1.5 0 .6.2 1.8.1 3.5 0 5.2-.2 1.7-.4 3.4-.7 5.2-.2 1.1-.3 2.1-.6 3.2-.2 1-.4 2.1-.6 3.2-.1.3 0 .6.3 1 .3-.9.7-1.8 1-2.7.3-.9.7-1.8 1.1-2.7.4-.9.7-1.8 1.1-2.8.4-.9.8-1.9 1.2-2.8l1.2-2.7c.4-.9.8-1.8 1.3-2.8.3 0 .7-.1 1.1-.2.4-.1.8-.1 1.1 0 .5.1.9.3 1.1.6.2.3.3.7.2 1.3-.1.6-.1 1.2-.2 1.8-.1.6-.1 1.2-.2 1.8 0 .5-.1 1-.1 1.5V32c-.2.4-.2.9-.2 1.3s.1.8.1 1.3c.1.4.2.8.2 1.3-.1.5 0 .9-.1 1.3"/><path class="st1" d="M106.2 21.5v-.1c0-.2.1-.3.1-.5 0-.3 0-.5.1-.8.1-.2.1-.5.1-.7 0-.2.1-.4.2-.5.1-.2.1-.3.2-.5s.2-.5.3-.7c.1-.3.3-.5.4-.8.1-.2.3-.4.4-.7.2-.2.3-.4.5-.6.3-.3.6-.6.8-.9.1-.1.3-.2.4-.3l.1-.1c.2-.1.3-.3.5-.4.2-.2.4-.4.6-.5.1-.1.2-.2.4-.3.2-.2.5-.4.7-.6.3-.2.5-.5.7-.7.1-.1.3-.3.5-.4.1-.1.3-.1.4-.3l.1-.1c.2-.1.4-.2.5-.2.1 0 .2-.1.3-.1.1 0 .1 0 .2.1l.1.1v.1c.1.9-.1 1.8-.1 2.8 0 1 .2 2 .1 3 0 .9-.3 1.7-.7 2.5-.8 1.9-2.2 4.2-4.3 4.9-.3.1-.5.2-.7.2-.2 0-.4.1-.6.2-.7.4-1.4 1.3-1.4 2.2v.1c-.1.1-.2.3-.4.3-.1 0-.2.1-.3 0-.1 0-.1-.1-.2-.1l-.1-.1c0-.2 0-.4.1-.7V26c0-.1-.1-.3-.1-.4-.1-.3-.2-.6-.3-.8-.1-.3-.3-.6-.4-.8-.1-.2-.3-.6-.5-.7l-.1-.1-.9-.9c-.1-.1-.1-.2-.2-.3 0-.1-.1-.1-.2-.1-.3 0-.7-.2-1-.3-.2-.1-.5-.2-.7-.3-.1 0-.1-.1-.2-.1-.3-.2-.6-.3-.8-.4-.1-.1-.2-.1-.3-.2-.3-.2-.6-.3-.8-.5-.2-.1-.3-.2-.5-.3-.2-.1-.3-.2-.5-.4-.1-.1-.3-.2-.4-.3-.2-.1-.4-.3-.6-.5l-.6-.6-.5-.5-.3-.3c-.2-.2-.3-.4-.5-.5-.3-.4-.6-.7-.9-1.1-.1-.2-.3-.4-.4-.6-.1-.2-.3-.5-.4-.8-.1-.3-.3-.6-.4-.9-.2-.4-.3-.8-.4-1.2-.1-.2-.1-.4-.2-.6 0-.1-.1-.2-.1-.4v-.2c0-.2-.1-.4-.1-.6 0-.1 0-.2-.1-.4 0-.4-.1-.7-.1-1.1 0-.4-.1-.7 0-1.1 0-.3 0-.6.1-.9 0-.3.1-.7.2-1 .1-.4.1-.7.2-1.1.1-.4.1-.7.2-1.1 0-.3.1-.6.1-.9v-.6c0-.2 0-.3.1-.5.1-.3.1-.5.2-.8V.6c0-.1 0-.1.1-.2 0-.1.1-.2.1-.3 0 0 0-.1.1-.1.1-.2.3-.3.5-.1.3.3.4.4.4.5.3.3.5.6.7.9.2.4.5.7.7 1 .6.7 1.2 1.4 1.9 2 .2.2.4.4.7.5.2.1.4.3.6.4.2.2.5.3.7.5.2.1.3.2.5.4.2.1.3.2.5.4l.3.3c.2.2.4.4.7.6.3.2.5.4.8.6.5.4.9.9 1.3 1.4.8 1 1.4 2.2 1.8 3.4.2.8.4 1.6.5 2.4.1.8.1 1.7 0 2.5l-.3 2.1c-.1.3-.2.7-.2 1.1v.4c-.2 0 0 .2 0 .2m-7.9-11.1c.7.6 1.3 1.3 2 1.9l.9.9c.3.3.6.5.9.8.3.4.6.7.9 1.1.4.6.8 1.2 1.2 1.9.2.4.4.8.6 1.3.1.2.2.4.2.7 0 .1.1.2.1.3 0 .1 0 .1.1.2v-.1-.4-.4c.1-1.7-.1-3.2-.5-4.9-.1-.2-.1-.4-.1-.6-.1-.3-.1-.5-.2-.8l-.3-.9c-.1-.2-.2-.4-.3-.5-.9-1.5-2-2.7-3.4-3.7-.1-.1-.2-.1-.3-.2-.2-.1-.4-.3-.6-.4-1.3-.9-2.7-1.8-3.8-3.1l-.1-.1v.1c0 .4 0 .8-.1 1.2 0 .4-.1.7-.1 1.1-.1.4-.1.8-.1 1.3 0 .6-.1 1.1 0 1.7v.8c0 .3.1.5.1.8.1 1 .4 2 .8 3 .2.5.4.9.6 1.4.2.4.5.8.8 1.2.3.4.6.7.9 1.1.6.6 1.3 1.3 2.1 1.7.3.1.5.3.7.4l.9.6c.2.1.4.3.6.4.2.1.4.2.5.3.1 0 .2.1.2.1l.2.1v-.1c-.1-.2-.2-.4-.3-.7-.1-.2-.2-.4-.2-.6-.1-.2-.1-.3-.2-.5-.1-.3-.3-.6-.4-.9-.2-.5-.4-1-.7-1.5-.1-.2-.2-.4-.3-.5-.1-.2-.2-.3-.3-.4-.1-.1-.1-.2-.2-.4-.1-.1-.1-.2-.2-.3-.1-.1-.2-.3-.3-.4 0-.1-.1-.1-.1-.2-.1-.1-.2-.3-.3-.4-.2-.2-.3-.5-.5-.7-.1-.1-.2-.3-.3-.4 0-.1-.1-.1-.1-.2-.1-.1-.1-.2-.1-.3-.1-.2-.3-.5-.4-.7-.1-.1-.1-.2-.1-.3-.1-.2-.2-.3-.2-.5-.2-.1-.2-.2-.2-.3m9.3 15.1c.1-.1.2-.3.3-.4 0-.1.1-.2.1-.3.3-.4.7-.7 1.2-1 .7-.5 1.4-1 2-1.6.3-.3.6-.6.8-1 .3-.4.5-.7.7-1.1.2-.6.5-1.1.6-1.7.1-.6.2-1.3.2-1.9v-1.9c0-.6.1-1.2.1-1.9v-.1c.1 0-.4.4-.4.4-.2.2-.4.3-.6.5-.4.3-.8.6-1.2 1 0 .1-.2.2-.2.3l-.3.3-.6.6c-.2.2-.4.4-.5.6-.1.2-.2.4-.4.5-.4.6-.7 1.3-1 2-.3.7-.4 1.5-.5 2.2-.3 1.4-.3 2.9-.3 4.5 0-.1 0-.1 0 0m-1.4-2.5s0-.1 0 0c-.1-.3-.2-.4-.3-.6-.6-.6-.9-1.4-1.3-2.1-.2-.5-.5-1-.7-1.6-.1-.2-.2-.6-.3-.8-.1-.2-.2-.3-.3-.6-.1-.2-.2-.3-.2-.5-.1-.2-.2-.5-.3-.7-.1-.2-.3-.5-.4-.7-.2-.2-.3-.5-.6-.7-.1-.1-.2-.1-.3-.2l-.3-.3-.4-.4h-.1c.1.1.1.2.2.2l.1.1c.1.2.2.5.4.7.1.1.2.3.3.4.5.9.9 1.9 1.4 2.8.5 1 1 1.9 1.5 2.9.2.3.3.5.5.8l.1.1c.1.2.3.4.5.5l.3.3h.1c.1 0 .1 0 .1.1-.1.3-.1.3 0 .3M94.5 3s.1 0 0 0c.1 0 .1 0 0 0 .1 0 .1 0 0 0"/><path class="st1" d="M109 22.9c-.1.1-.2.2-.2 0 0-.1 0-.3.1-.4.1-.1.1-.3.1-.4.1-.5.2-1 .4-1.5.1-.5.3-.9.4-1.4.1-.2.1-.3.2-.5.1-.1.1-.3.2-.4 0-.1.1-.1.1-.2s.1-.2.1-.2c0-.1.1-.1.1-.2.1-.2.2-.4.4-.6.1-.2.2-.3.3-.5l.3-.3c.1-.1.2-.2.2-.3.1 0 .1.1.1.1-.1.9-.1 1.9-.4 2.8-.3.9-.7 1.7-1.2 2.5-.2.3-.4.5-.6.7v.1c0 .1-.1.2-.2.3-.1.1-.2.1-.3.2 0 .1 0 .2-.1.2m2-5.5l-.1.1c0 .1 0 .1-.1.2-.1.2-.2.3-.3.4-.2.3-.5.9-.5.9s-.3.8-.4 1.2c-.1.4-.1.8-.2 1.2v.2c0-.1.1-.1.1-.1.1-.2.2-.3.3-.5.1-.1.1-.2.2-.3.2-.3.3-.6.4-.9.1-.2.1-.4.2-.7.2-.5.3-1 .4-1.5v-.2"/><path class="st0" d="M134.2 20.2h.5c.3 0 .5.1.6.2.1.1.2.2.2.4 0 .3-.2.5-.4.5.2.1.3.2.3.4.1.3.1.5.2.6h-.3c0-.1-.1-.2-.1-.5-.1-.3-.2-.4-.4-.4h-.3v.9h-.3v-2.1zm.3.9h.3c.3 0 .5-.2.5-.4 0-.3-.2-.4-.5-.4h-.3v.8z"/><path class="st0" d="M134.9 22.8c-.9 0-1.6-.7-1.6-1.6 0-.9.7-1.6 1.6-1.6.9 0 1.6.7 1.6 1.6 0 .9-.7 1.6-1.6 1.6m0-2.9c-.7 0-1.3.6-1.3 1.3 0 .7.6 1.3 1.3 1.3.7 0 1.3-.6 1.3-1.3 0-.7-.6-1.3-1.3-1.3M111.4 23.3c-2.9-.1-5.2 1.3-5.2 4.4 0 4.2 4.7 6.5 4.7 10.7.7-.1 1.5-.2 2.2-.3-.5-3.2-1.5-5.8-3.9-8-3.7-3.5 3.1-5.6 3.7-1.8.2 1.3 2.1.9 2.2-.3.4-5.5-8.5-7.3-9.4-1.5-.2 1.4 1.9 2 2.2.6.5-3.2 5.2-2.1 5 .9.7-.1 1.5-.2 2.2-.3-.7-3.8-5.5-4.8-8.2-2.5-1.5 1.3-1.2 3.7-.3 5.2.6 1.2 1.9 1.9 2.7 2.9 1.1 1.4 1.4 3.6 1.7 5.3.2 1.3 2.2.9 2.2-.3 0-2.3-.6-4-1.9-5.8-1.6-2.1-5.1-7.3.2-7.1 1.4.3 1.4-2-.1-2.1"/></svg>